# xmcd
#
# Track frame offsets: 
#        150
#        17862
#        49619
#        69653
#        87433
#        109862
#        132942
#        156411
#        171961
#
# Disc length: 2399 seconds
#
# Revision: 0
# Processed by: cddbd v1.5.2PL0 Copyright (c) Steve Scherf et al.
# Submitted via: ExactAudioCopyFreeDBPlugin 1.0
#
DISCID=7a095d09
DTITLE=Melvin Taylor and The Slack Band - Dirty Pool
DYEAR=1997
DGENRE=Blues
TTITLE0=Too Sorry
TTITLE1=Dirty Pool
TTITLE2=I Ain't Superstitious
TTITLE3=Kansas City
TTITLE4=Floodin' In California
TTITLE5=Born Under A Bad Sign
TTITLE6=Right Place, Wrong Time
TTITLE7=Telephone Song
TTITLE8=Merry Christmas Baby
EXTD=
EXTT0=
EXTT1=
EXTT2=
EXTT3=
EXTT4=
EXTT5=
EXTT6=
EXTT7=
EXTT8=
PLAYORDER=
